<svg width="165" height="237" viewBox="0 0 165 237" fill="none" xmlns="http://www.w3.org/2000/svg">
<path d="M142.399 228.693L92.1796 166.124L91.776 165.621L91.1514 165.781L13.4349 185.707L57.4235 118.611L57.7771 118.072L57.4318 117.527L14.4652 49.772L91.8707 70.8738L92.4928 71.0434L92.904 70.5467L144.066 8.74551L147.916 88.8833L147.947 89.5274L148.547 89.765L223.133 119.325L148.107 147.751L147.504 147.98L147.463 148.623L142.399 228.693Z" fill="#1E1E1E" stroke="#1E1E1E" stroke-width="2"/>
<path d="M138.399 225.693L88.1796 163.124L87.776 162.621L87.1514 162.781L9.43493 182.707L53.4235 115.611L53.7771 115.072L53.4318 114.527L10.4652 46.772L87.8707 67.8738L88.4928 68.0434L88.904 67.5467L140.066 5.74551L143.916 85.8833L143.947 86.5274L144.547 86.765L219.133 116.325L144.107 144.751L143.504 144.98L143.463 145.623L138.399 225.693Z" fill="#A6B1D8" stroke="#1E1E1E" stroke-width="2"/>
</svg>
